<svg width="35" height="27" viewBox="0 0 35 27" fill="none" xmlns="http://www.w3.org/2000/svg">
<path d="M2.38644 26.344H7.95452V12.7762L0 6.79034V23.9497C0 25.2725 1.06792 26.3441 2.38644 26.3441V26.344Z" fill="#4285F4"/>
<path d="M27.0455 26.344H32.6137C33.9321 26.344 35 25.2725 35 23.9497V6.79034L27.0455 12.7762V26.344V26.344Z" fill="#34A853"/>
<path d="M27.0455 2.40077V12.7762L35 6.79035V3.59797C35 0.639039 31.6333 -1.05106 29.2727 0.724724L27.0455 2.40077V2.40077Z" fill="#FBBC05"/>
<path fill-rule="evenodd" clip-rule="evenodd" d="M7.95451 12.7762V2.40077L17.5 9.58381L27.0455 2.40077V12.7762L17.5 19.9591L7.95451 12.7762V12.7762Z" fill="#EA4335"/>
<path d="M0 3.59809V6.79047L7.95452 12.7763V2.40089L5.72726 0.724983C3.36672 -1.0508 0 0.639157 0 3.59795V3.59809Z" fill="#87130A"/>
</svg>
