<svg width="18" height="18" viewBox="0 0 18 18" fill="none" xmlns="http://www.w3.org/2000/svg">
<g clip-path="url(#clip0_156_750)">
<path d="M17.6008 17.1663L11.4834 11.0489C12.5519 9.87475 13.2211 8.31311 13.2211 6.59883C13.2094 2.9589 10.2505 0 6.61057 0C2.97065 0 0 2.9589 0 6.61057C0 10.2622 2.9589 13.2211 6.61057 13.2211C8.1135 13.2211 9.49902 12.7045 10.6145 11.8591L16.7671 18.0117L17.6008 17.1663ZM6.61057 12.0352C3.61644 12.0352 1.17417 9.6047 1.17417 6.61057C1.17417 3.61644 3.61644 1.17417 6.61057 1.17417C9.6047 1.17417 12.047 3.61644 12.047 6.61057C12.0352 9.6047 9.6047 12.0352 6.61057 12.0352Z" fill="#B4B8C0"/>
</g>
<defs>
<clipPath id="clip0_156_750">
<rect width="17.6008" height="18" fill="white"/>
</clipPath>
</defs>
</svg>
